File Name

Deep Blue Sea 1999 800p BRRip H264.mp4

File Size
Format : MPEG-4
Format profile : Base Media
Codec ID : isom
File size : 3.73 GiB
Duration : 1h 45mn
Overall bit rate : 5 087 Kbps

Video
ID : 1
Format : AVC
Format/Info : Advanced Video Codec
Format profile : High@L4.1
Format settings, CABAC : Yes
Format settings, ReFrames : 3 frames
Codec ID : avc1
Codec ID/Info : Advanced Video Coding
Duration : 1h 45mn
Bit rate mode : Variable
Bit rate : 4 449 Kbps
Maximum bit rate : 20.3 Mbps
Width : 1 920 pixels
Height : 800 pixels
Display aspect ratio : 2.40:1
Frame rate mode : Constant
Frame rate : 23.976 fps
Resolution : 24 bits
Colorimetry : 4:2:0
Scan type : Progressive
Bits/(Pixel*Frame) : 0.121
Stream size : 3.26 GiB (87%)

Audio #1
ID : 2
Format : AAC
Format/Info : Advanced Audio Codec
Format version : Version 4
Format profile : LC
Format settings, SBR : No
Codec ID : 40
Duration : 1h 45mn
Bit rate mode : Variable
Bit rate : 192 Kbps
Maximum bit rate : 200 Kbps
Channel(s) : 2 channels
Channel positions : L R
Sampling rate : 48.0 KHz
Resolution : 16 bits
Stream size : 143 MiB (4%)

Audio #2
ID : 3
Format : AAC
Format/Info : Advanced Audio Codec
Format version : Version 4
Format profile : LC
Format settings, SBR : No
Codec ID : 40
Duration : 1h 45mn
Bit rate mode : Variable
Bit rate : 448 Kbps
Maximum bit rate : 461 Kbps
Channel(s) : 6 channels
Channel positions : Front: L C R, Rear: L R, LFE
Sampling rate : 48.0 KHz
Resolution : 16 bits
Stream size : 336 MiB (9%)

English SRT : External

Language : English



 
http://www.imdb.com/title/tt0149261/

Release Date: 28 July 1999 (USA) 

Genre: Sci-Fi | Thriller 

Plot: Searching for a cure to Alzheimer's disease a group of scientists on an isolated research facility become the bait as a trio of intelligent sharks fight back.

Cast: 
Thomas Jane ... Carter Blake
Saffron Burrows ... Dr. Susan McCallister
LL Cool J ... Sherman 'Preacher' Dudley
Michael Rapaport ... Tom "Scoggs" Scoggins
Stellan Skarsgård ... Jim Whitlock
Samuel L. Jackson ... Russell Franklin
Jacqueline McKenzie ... Janice Higgins
Aida Turturro ... Brenda Kerns
Cristos ... Boat Captain
Daniel Rey ... Helicopter Pilot (as Daniel Bahimo Rey)
Valente Rodriguez ... Helicopter Co-Pilot
Brent Roam ... Helicopter Winch Operator
Eyal Podell ... Boy #1
Erinn Bartlett ... Girl #1
Dan Thiel ... Boy #2 - Kevin Crawford




Screenshots:
 
http://www.imagebam.com/image/b3b6e093169234
 
http://www.imagebam.com/image/824a8393169273
 
http://www.imagebam.com/image/28293b93169310
 
http://www.imagebam.com/image/4a78d393169344
 
http://www.imagebam.com/image/e7534693169387
 
http://www.imagebam.com/image/22947793169437
 
http://www.imagebam.com/image/385f1193169486
 
http://www.imagebam.com/image/de7c8293169518
 
http://www.imagebam.com/image/e5de2593169527